<svg width="30" height="35" viewBox="0 0 30 35" fill="none" xmlns="http://www.w3.org/2000/svg">
<path d="M0.333496 25.6668C0.333496 27.2435 1.0485 28.6589 2.16683 29.6443V32.8335C2.16683 33.8189 2.99183 34.6252 4.00016 34.6252H5.8335C6.84183 34.6252 7.66683 33.8189 7.66683 32.8335V31.0418H22.3335V32.8335C22.3335 33.8189 23.1585 34.6252 24.1668 34.6252H26.0002C27.0085 34.6252 27.8335 33.8189 27.8335 32.8335V29.6443C28.9518 28.6589 29.6668 27.2435 29.6668 25.6668V7.75016C29.6668 1.47933 23.1035 0.583496 15.0002 0.583496C6.89683 0.583496 0.333496 1.47933 0.333496 7.75016V25.6668ZM6.75016 27.4585C5.2285 27.4585 4.00016 26.2581 4.00016 24.771C4.00016 23.2839 5.2285 22.0835 6.75016 22.0835C8.27183 22.0835 9.50016 23.2839 9.50016 24.771C9.50016 26.2581 8.27183 27.4585 6.75016 27.4585ZM23.2502 27.4585C21.7285 27.4585 20.5002 26.2581 20.5002 24.771C20.5002 23.2839 21.7285 22.0835 23.2502 22.0835C24.7718 22.0835 26.0002 23.2839 26.0002 24.771C26.0002 26.2581 24.7718 27.4585 23.2502 27.4585ZM26.0002 16.7085H4.00016V7.75016H26.0002V16.7085Z" fill="black" fill-opacity="0.87"/>
</svg>
